# AST/ASF file generated using VICON BodyLanguage
# -----------------------------------------------
:version 1.10
:name VICON
:units
  mass 1.0
  length 0.45
  angle deg
:documentation
   .ast/.asf automatically generated from VICON data using
   VICON BodyBuilder and BodyLanguage model FoxedUp or BRILLIANT.MOD
:root
   order TX TY TZ RX RY RZ
   axis XYZ
   position 0 0 0  
   orientation 0 -0 0 
:bonedata
  begin
     id 1 
     name lhipjoint
     direction 0.500677 -0.737119 0.453848 
     length 2.34727 
     axis 0 -0 0  XYZ
  end
  begin
     id 2 
     name lfemur
     direction 0.34202 -0.939693 0  
     length 7.53653  
     axis 0 -0 20  XYZ
    dof rx ry rz
    limits (-160.0 20.0)
           (-70.0 70.0)
           (-60.0 70.0)
  end
  begin
     id 3 
     name ltibia
     direction 0.34202 -0.939693 0   
     length 6.85572   
     axis 0 -0 20   XYZ
    dof rx
    limits (-10.0 170.0)
  end
  begin
     id 4 
     name lfoot
     direction 0.155313 -0.426718 0.890949   
     length 2.18324   
     axis -90 -1.13533e-015 20   XYZ
    dof rx rz
    limits (-45.0 90.0)
           (-70.0 20.0)
  end
  begin
     id 5 
     name ltoes
     direction 1.53474e-011 -4.21647e-011 1   
     length 1.06748   
     axis -90 -1.13533e-015 20   XYZ
    dof rx
    limits (-90.0 20.0)
  end
  begin
     id 6 
     name rhipjoint
     direction -0.632471 -0.659587 0.406111   
     length 2.62319  
     axis 0 -0 0  XYZ 
  end
  begin
     id 7 
     name rfemur
     direction -0.34202 -0.939693 0   
     length 7.21735   
     axis 0 -0 -20   XYZ
    dof rx ry rz
    limits (-160.0 20.0)
           (-70.0 70.0)
           (-70.0 60.0)
  end
  begin
     id 8 
     name rtibia
     direction -0.34202 -0.939693 0   
     length 7.02558   
     axis 0 -0 -20   XYZ
    dof rx
    limits (-10.0 170.0)
 end
 begin
     id 9 
     name rfoot
     direction -0.16057 -0.441164 0.882945   
     length 2.10014  
     axis -90 1.13533e-015 -20   XYZ
    dof rx rz
    limits (-45.0 90.0)
           (-20.0 70.0)
  end
  begin
     id 10 
     name rtoes
     direction -1.53553e-011 -4.2192e-011 1   
     length 1.02554   
     axis -90 1.13533e-015 -20   XYZ
    dof rx
    limits (-90.0 20.0)
  end
  begin
     id 11 
     name lowerback
     direction 0.0401429 0.998861 -0.0258085   
     length 1.80848   
     axis 0 -0 0   XYZ
    dof rx ry rz
    limits (-20.0 45.0)
           (-30.0 30.0)
           (-30.0 30.0)
  end
  begin
     id 12 
     name upperback
     direction -0.0130978 0.999914 -0.000352645   
     length 1.8116   
     axis 0 -0 0   XYZ
    dof rx ry rz
    limits (-20.0 45.0)
           (-30.0 30.0)
           (-30.0 30.0)
  end
  begin
     id 13 
     name thorax
     direction -0.0300198 0.999453 0.0138573   
     length 1.81778   
     axis 0 -0 0   XYZ
    dof rx ry rz
    limits (-20.0 45.0)
           (-30.0 30.0)
           (-30.0 30.0)
  end
  begin
     id 14 
     name lowerneck
     direction -0.0401726 0.999191 -0.00173647   
     length 2.10594   
     axis 0 -0 0   XYZ
    dof rx ry rz
    limits (-20.0 45.0)
           (-30.0 30.0)
           (-30.0 30.0)
  end
  begin
     id 15 
     name upperneck
     direction 0.0119835 0.998501 0.0534085   
     length 2.07325   
     axis 0 -0 0   XYZ
    dof rx ry rz
    limits (-20.0 45.0)
           (-30.0 30.0)
           (-30.0 30.0)
  end
  begin
     id 16
     name head
     direction 0.00628309 0.999826 0.0175921  
     length 2.15096  
     axis 0 -0 0   XYZ
    dof rx ry rz
    limits (-20.0 45.0)
           (-30.0 30.0)
           (-30.0 30.0)
  end
  begin
     id 17 
     name lclavicle
     direction 0.895501 0.429681 -0.115981  
     length 4.18092  
     axis 0 -0 0   XYZ
    dof ry rz
    limits (-20.0 10.0)
           (0.0 20.0)
  end
  begin
     id 18 
     name lhumerus
     direction 1 -4.48961e-011 -3.38433e-028   
     length 5.77237   
     axis 180 -30 -90   XYZ
    dof rx ry rz
    limits (-60.0 90.0)
           (-90.0 90.0)
           (-90.0 90.0)
  end
  begin
     id 19
     name lradius
     direction 1 -4.4901e-011 1.11983e-026   
     length 2.91878   
     axis 180 -30 -90   XYZ
    dof rx
    limits (-10.0 170.0)
  end
  begin
     id 20
     name lwrist
     direction 1 -4.48934e-011 1.88176e-026   
     length 1.45939   
     axis -1.23311e-014 90 90   XYZ
    dof ry
    limits (-180.0 0.0)
 end
  begin
     id 21 
     name lhand
     direction 1 -4.4895e-011 3.76352e-026   
     length 1.06566   
     axis -2.40147e-014 90 90   XYZ
    dof rx rz
    limits (-90.0 90.0)
           (-45.0 45.0)
  end
  begin
     id 22 
     name lfingers
     direction 1 -4.49005e-011 7.52705e-026   
     length 0.859162   
     axis -4.80295e-014 90 90   XYZ
    dof rx
    limits (0.0 90.0)
  end
  begin
     id 23
     name lthumb
     direction 0.707107 -6.34885e-011 0.707107   
     length 1.23359   
     axis -90 45 -9.86935e-015   XYZ
    dof rx rz
    limits (-45.0 45.0)
           (-45.0 45.0)
  end
  begin
     id 24 
     name rclavicle
     direction -0.91006 0.40451 -0.0903492   
     length 4.23293  
     axis 0 -0 0   XYZ 
    dof ry rz
    limits (-10.0 20.0)
           (-20.0 0.0)
  end
  begin
     id 25 
     name rhumerus
     direction -1 -4.4897e-011 1.7415e-027  
     length 5.49854   
     axis 180 30 90   XYZ
    dof rx ry rz
    limits (-90.0 60.0)
           (-90.0 90.0)
           (-90.0 90.0)
  end
  begin
     id 26 
     name rradius
     direction -1 -4.48963e-011 1.21259e-026   
     length 3.1186   
     axis 180 30 90   XYZ
    dof rx
    limits (-10.0 170.0)
  end
  begin
     id 27 
     name rwrist
     direction -1 -4.48967e-011 1.88176e-026   
     length 1.5593   
     axis -1.23311e-014 -90 -90   XYZ
    dof ry
    limits (-180.0 0.0)
  end
  begin
     id 28
     name rhand
     direction -1 -4.4895e-011 3.76352e-026   
     length 0.71207   
     axis -2.40147e-014 -90 -90   XYZ
    dof rx rz
    limits (-90.0 90.0)
           (-45.0 45.0)
  end
  begin
     id 29
     name rfingers
     direction -1 -4.49005e-011 7.52705e-026   
     length 0.574089   
     axis -4.80295e-014 -90 -90   XYZ
    dof rx
    limits (0.0 90.0)
  end
  begin
     id 30
     name rthumb
     direction -0.707107 -6.34982e-011 0.707107   
     length 0.824281   
     axis -90 -45 9.86935e-015   XYZ
    dof rx rz
    limits (-45.0 45.0)
           (-45.0 45.0)
  end
:hierarchy
  begin
    root lhipjoint rhipjoint lowerback
    lhipjoint lfemur
    lfemur ltibia
    ltibia lfoot
    lfoot ltoes
    rhipjoint rfemur
    rfemur rtibia
    rtibia rfoot
    rfoot rtoes
    lowerback upperback
    upperback thorax
    thorax lowerneck lclavicle rclavicle
    lowerneck upperneck
    upperneck head
    lclavicle lhumerus
    lhumerus lradius
    lradius lwrist
    lwrist lhand lthumb
    lhand lfingers
    rclavicle rhumerus
    rhumerus rradius
    rradius rwrist
    rwrist rhand rthumb
    rhand rfingers
  end

#!OML:ASF C:\ViconDB\ViconDB\414\Spring2016\042216\male.ASF
:FULLY-SPECIFIED
:DEGREES
234
root -8.2718 17.1222 11.5337 -168.901 83.5081 -172.228
lowerback -0.308969 -3.9144 2.43852
upperback -0.53977 -5.21598 0.280483
thorax -0.571642 -2.61712 -1.05288
lowerneck -2.86457 1.70686 -4.8735
upperneck -4.74671 2.58005 4.37142
head -1.12827 1.35718 2.21329
rclavicle 9.62242e-015 2.60905e-015
rhumerus -40.7658 -17.185 -79.6165
rradius 22.2631
rwrist 39.0513
rhand 13.1848 -19.6599
rfingers 7.12502
rthumb 38.1403 -45.4208
lclavicle 9.62242e-015 2.60905e-015
lhumerus -24.0021 3.64388 89.1111
lradius 38.9738
lwrist -8.47221
lhand -8.27385 11.6087
lfingers 7.12502
lthumb 17.6453 40.828
rfemur -30.004 -5.44575 22.9026
rtibia 21.1889
rfoot -5.43875 0.365004
rtoes -23.5622
lfemur 20.0272 -5.24526 -20.8608
ltibia -2.8625e-014
lfoot -16.605 12.3812
ltoes -25.3353
235
root -8.04559 17.1154 11.5447 -165.649 83.2387 -168.876
lowerback -0.546346 -3.8978 3.00095
upperback -0.458648 -5.20262 0.349507
thorax -0.39911 -2.60912 -1.31357
lowerneck -2.86763 1.67 -4.65655
upperneck -4.86797 2.52468 4.16342
head -1.15594 1.32886 2.10533
rclavicle 1.83643e-014 -1.73937e-016
rhumerus -40.5403 -17.586 -79.6208
rradius 22.1343
rwrist 39.2679
rhand 12.9446 -19.7378
rfingers 7.12502
rthumb 37.9136 -45.5605
lclavicle 1.83643e-014 -1.73937e-016
lhumerus -24.3235 3.946 89.0689
lradius 38.6341
lwrist -8.76415
lhand -8.26164 11.55
lfingers 7.12502
lthumb 17.6571 40.7683
rfemur -29.4878 -3.67438 22.7107
rtibia 21.6437
rfoot -4.79336 0.201717
rtoes -23.5268
lfemur 16.9457 -5.39185 -20.224
ltibia 8.22642
lfoot -19.2597 12.624
ltoes -27.1636
236
root -7.81612 17.1088 11.5463 -164.242 83.0205 -167.399
lowerback -0.867064 -3.92367 3.43936
upperback -0.404276 -5.25197 0.374098
thorax -0.203516 -2.63102 -1.55607
lowerneck -2.80567 1.68397 -4.41049
upperneck -5.00662 2.53015 3.8619
head -1.20111 1.33037 1.96129
rclavicle 6.464e-014 5.01931e-015
rhumerus -40.308 -17.9953 -79.522
rradius 21.9649
rwrist 39.6683
rhand 12.6892 -19.6609
rfingers 7.12502
rthumb 37.6723 -45.5485
lclavicle 6.464e-014 5.01931e-015
lhumerus -24.478 5.28729 88.8005
lradius 37.6266
lwrist -10.0719
lhand -8.1009 10.8464
lfingers 7.12502
lthumb 17.8117 40.0507
rfemur -28.9455 -3.41853 22.8781
rtibia 22.2117
rfoot -3.66371 0.864245
rtoes -22.1984
lfemur 15.4525 -5.52543 -19.8532
ltibia 12.91
lfoot -19.701 12.155
ltoes -29.2072
237
root -7.60332 17.1094 11.556 -160.522 82.917 -163.566
lowerback -0.838846 -3.88782 4.00581
upperback -0.40886 -5.20452 0.485538
thorax -0.261756 -2.6084 -1.75146
lowerneck -2.82155 1.69806 -4.22136
upperneck -5.05938 2.5408 3.65594
head -1.20851 1.33499 1.86008
rclavicle 3.73032e-015 -1.41883e-014
rhumerus -40.0197 -18.5393 -79.4159
rradius 21.7156
rwrist 40.1879
rhand 12.4993 -19.7079
rfingers 7.12502
rthumb 37.4928 -45.6433
lclavicle 3.73032e-015 -1.41883e-014
lhumerus -25.2248 5.3075 88.8031
lradius 37.5856
lwrist -9.84602
lhand -8.46542 11.2123
lfingers 7.12502
lthumb 17.461 40.4481
rfemur -28.4764 -2.9761 23.4321
rtibia 23.129
rfoot -4.07273 1.00247
rtoes -21.1939
lfemur 14.022 -5.31383 -19.0805
ltibia 17.1203
lfoot -19.064 11.5311
ltoes -31.3347
238
root -7.38062 17.1114 11.5548 -160.45 82.8605 -163.39
lowerback -1.01243 -3.90987 4.12673
upperback -0.37211 -5.24386 0.515668
thorax -0.137383 -2.62512 -1.80196
lowerneck -2.8525 1.75901 -3.94832
upperneck -5.07195 2.60815 3.36058
head -1.19971 1.36706 1.71531
rclavicle 8.84514e-014 -1.30204e-014
rhumerus -39.5682 -18.3663 -79.6733
rradius 21.529
rwrist 40.0528
rhand 12.3444 -19.673
rfingers 7.12502
rthumb 37.3463 -45.6471
lclavicle 8.84514e-014 -1.30204e-014
lhumerus -25.8526 6.27171 88.6284
lradius 37.0785
lwrist -10.6708
lhand -8.51969 11.2319
lfingers 7.12502
lthumb 17.4087 40.4723
rfemur -28.1081 -3.37781 23.6018
rtibia 24.2863
rfoot -5.02752 1.25996
rtoes -20.6127
lfemur 12.612 -4.92901 -18.7232
ltibia 21.1329
lfoot -17.8396 10.7571
ltoes -33.5007
239
root -7.16473 17.1135 11.5501 -161.931 82.8941 -164.853
lowerback -1.15131 -3.88965 4.22642
upperback -0.389192 -5.22463 0.437886
thorax -0.0923284 -2.61538 -1.94579
lowerneck -2.97493 1.76564 -3.89386
upperneck -4.992 2.61274 3.20575
head -1.14988 1.37053 1.65655
rclavicle 1.16584e-014 -2.83268e-015
rhumerus -39.1716 -18.1393 -79.994
rradius 21.5768
rwrist 39.6854
rhand 12.5061 -19.5311
rfingers 7.12502
rthumb 37.4993 -45.4649
lclavicle 1.16584e-014 -2.83268e-015
lhumerus -26.4623 7.1415 88.461
lradius 36.538
lwrist -11.2054
lhand -8.897 11.5917
lfingers 7.12502
lthumb 17.0456 40.8639
rfemur -27.9776 -4.53328 23.7467
rtibia 25.4717
rfoot -5.2733 2.24868
rtoes -18.1786
lfemur 11.0133 -4.47188 -18.5751
ltibia 25.1079
lfoot -16.0517 9.6177
ltoes -34.2241
240
root -6.95167 17.1127 11.5488 -162.129 82.9879 -164.936
lowerback -1.19845 -3.83159 4.26607
upperback -0.354712 -5.15055 0.499567
thorax -0.0235602 -2.57608 -1.91014
lowerneck -3.22719 1.76382 -4.00777
upperneck -4.79633 2.61638 3.17929
head -1.04685 1.3756 1.67047
rclavicle -1.01945e-013 1.70955e-014
rhumerus -38.6064 -17.7287 -80.3538
rradius 21.5784
rwrist 38.9866
rhand 12.3536 -19.71
rfingers 7.12502
rthumb 37.3551 -45.6819
lclavicle -1.01945e-013 1.70955e-014
lhumerus -27.069 8.16895 88.4079
lradius 35.9144
lwrist -12.0505
lhand -8.87642 11.6486
lfingers 7.12502
lthumb 17.0654 40.9191
rfemur -27.6661 -5.28537 23.9884
rtibia 26.5306
rfoot -5.90328 3.4016
rtoes -17.0022
lfemur 9.435 -3.99339 -18.2768
ltibia 29.0883
lfoot -13.6348 8.47596
ltoes -34.9933
241
root -6.74672 17.118 11.5516 -161.486 83.0173 -164.149
lowerback -1.04684 -3.81018 4.5276
upperback -0.390564 -5.11521 0.453144
thorax -0.170128 -2.56238 -2.0881
lowerneck -3.36567 1.81526 -3.89636
upperneck -4.60923 2.68427 3.23437
head -0.966199 1.4072 1.67006
rclavicle -1.37689e-014 -2.88238e-015
rhumerus -38.1948 -17.047 -81.108
rradius 21.7582
rwrist 38.3623
rhand 12.5058 -19.4315
rfingers 7.12502
rthumb 37.4989 -45.3653
lclavicle -1.37689e-014 -2.88238e-015
lhumerus -27.508 9.86091 87.8276
lradius 34.7411
lwrist -13.6476
lhand -8.45425 11.1938
lfingers 7.12502
lthumb 17.4717 40.4286
rfemur -27.0867 -5.84313 24.3173
rtibia 27.2119
rfoot -6.65642 4.17195
rtoes -15.8543
lfemur 7.74831 -3.59721 -17.8364
ltibia 33.1403
lfoot -10.8565 7.65395
ltoes -34.9179
242
root -6.54894 17.1345 11.5541 -159.882 82.9177 -162.396
lowerback -0.858103 -3.79535 4.91456
upperback -0.405766 -5.08606 0.478061
thorax -0.320881 -2.55162 -2.26062
lowerneck -3.47383 1.81466 -3.78654
upperneck -4.53101 2.68182 3.19978
head -0.920752 1.40513 1.64066
rclavicle -3.69677e-014 -3.27995e-015
rhumerus -37.689 -16.0617 -82.0024
rradius 22.1149
rwrist 37.0784
rhand 12.4632 -19.5333
rfingers 7.12502
rthumb 37.4587 -45.4778
lclavicle -3.69677e-014 -3.27995e-015
lhumerus -28.1501 10.7534 87.543
lradius 34.1674
lwrist -14.2926
lhand -8.40624 11.5476
lfingers 7.12502
lthumb 17.5179 40.7783
rfemur -26.2571 -5.77353 24.6131
rtibia 27.5318
rfoot -7.36239 3.96059
rtoes -15.3734
lfemur 5.90413 -3.26345 -17.303
ltibia 37.242
lfoot -8.04433 6.71172
ltoes -33.297
243
root -6.34037 17.1589 11.5452 -156.796 82.8888 -159.05
lowerback -0.729346 -3.71715 5.58384
upperback -0.364707 -4.9766 0.53889
thorax -0.394334 -2.49844 -2.5599
lowerneck -3.50514 1.81213 -3.8317
upperneck -4.52035 2.68175 3.23231
head -0.91344 1.40592 1.65946
rclavicle -2.40902e-014 1.17283e-014
rhumerus -37.1673 -14.9356 -82.8859
rradius 22.4804
rwrist 35.6347
rhand 12.5906 -19.3054
rfingers 7.12502
rthumb 37.5791 -45.2179
lclavicle -2.40902e-014 1.17283e-014
lhumerus -28.8498 11.5211 87.3112
lradius 33.7448
lwrist -14.8631
lhand -8.00383 11.6027
lfingers 7.12502
lthumb 17.9052 40.7985
rfemur -25.0968 -5.56464 25.0066
rtibia 27.48
rfoot -7.85723 3.78984
rtoes -14.435
lfemur 4.16516 -2.75651 -16.6777
ltibia 41.3577
lfoot -5.31456 5.75797
ltoes -30.681
244
root -6.14712 17.1818 11.5472 -154.7 82.4959 -156.713
lowerback -0.392377 -3.76618 6.12921
upperback -0.384728 -5.01578 0.633569
thorax -0.64569 -2.52522 -2.73633
lowerneck -3.46551 1.81997 -3.78724
upperneck -4.57662 2.69267 3.26574
head -0.938058 1.41063 1.66189
rclavicle 1.96579e-014 -6.75868e-015
rhumerus -36.7227 -13.788 -83.7726
rradius 23.02
rwrist 34.6425
rhand 12.7938 -19.0812
rfingers 7.12502
rthumb 37.7711 -44.9423
lclavicle 1.96579e-014 -6.75868e-015
lhumerus -29.7911 11.174 87.3239
lradius 33.8393
lwrist -14.4139
lhand -7.64994 12.0596
lfingers 7.12502
lthumb 18.2456 41.2239
rfemur -23.8024 -5.10197 25.3622
rtibia 27.1193
rfoot -8.28573 3.01304
rtoes -13.9277
lfemur 2.28298 -2.51372 -16.0425
ltibia 45.3908
lfoot -2.79968 5.06848
ltoes -28.0094
245
root -5.95497 17.2088 11.5499 -152.084 81.839 -153.891
lowerback -0.0676464 -3.84962 6.85146
upperback -0.439143 -5.09187 0.805942
thorax -0.9389 -2.57303 -2.92757
lowerneck -3.35962 1.78526 -3.89821
upperneck -4.69486 2.65383 3.41243
head -0.996155 1.3919 1.7278
rclavicle 4.75468e-014 1.16289e-014
rhumerus -36.2572 -12.1257 -84.8686
rradius 23.4825
rwrist 32.2574
rhand 11.9368 -18.997
rfingers 7.12502
rthumb 36.9609 -45.0716
lclavicle 4.75468e-014 1.16289e-014
lhumerus -30.2576 12.6663 86.8756
lradius 32.9486
lwrist -16.0585
lhand -7.15918 11.6075
lfingers 7.12502
lthumb 18.7177 40.727
rfemur -22.4259 -4.75681 25.9608
rtibia 26.5198
rfoot -8.72161 2.16268
rtoes -13.4569
lfemur 0.347224 -2.66223 -15.1761
ltibia 49.2308
lfoot -1.13218 4.7841
ltoes -20.4407
246
root -5.76296 17.2376 11.5484 -150.967 81.2977 -152.55
lowerback 0.217632 -3.92408 7.27622
upperback -0.471153 -5.15581 0.998999
thorax -1.15875 -2.61145 -2.93726
lowerneck -3.13508 1.76363 -3.75705
upperneck -4.9222 2.61001 3.12645
head -1.09665 1.3691 1.60816
rclavicle 1.23309e-014 -8.05078e-015
rhumerus -35.7673 -10.6793 -85.6158
rradius 24.2327
rwrist 30.2927
rhand 12.6369 -19.4144
rfingers 7.12502
rthumb 37.6229 -45.3152
lclavicle 1.23309e-014 -8.05078e-015
lhumerus -31.1267 12.671 86.9899
lradius 33.0917
lwrist -15.9884
lhand -6.75319 11.7929
lfingers 7.12502
lthumb 19.1082 40.8742
rfemur -21.0058 -4.725 26.3622
rtibia 25.841
rfoot -9.16496 1.69481
rtoes -13.2397
lfemur -1.51591 -2.75855 -14.6029
ltibia 52.7657
lfoot -0.520108 4.54432
ltoes -13.5607
247
root -5.5679 17.2717 11.5407 -150.565 80.9179 -151.982
lowerback 0.422886 -3.99024 7.64822
upperback -0.523536 -5.21268 1.15379
thorax -1.3536 -2.64669 -2.96157
lowerneck -2.91173 1.75799 -3.93465
upperneck -5.16555 2.60121 3.04814
head -1.21289 1.36821 1.6122
rclavicle 3.00444e-014 2.20651e-014
rhumerus -35.3244 -9.17856 -86.2787
rradius 24.7343
rwrist 29.3174
rhand 12.4595 -19.415
rfingers 7.12502
rthumb 37.4552 -45.3604
lclavicle 3.00444e-014 2.20651e-014
lhumerus -31.8094 12.7737 87.1001
lradius 32.9453
lwrist -15.8086
lhand -6.43331 11.8113
lfingers 7.12502
lthumb 19.4158 40.8619
rfemur -19.6346 -5.21323 26.6422
rtibia 25.0708
rfoot -9.57898 1.88854
rtoes -12.9975
lfemur -3.33525 -2.97055 -14.2967
ltibia 55.9445
lfoot -1.01787 5.45066
ltoes -8.45986
